<svg width="175" height="42" viewBox="0 0 175 42" fill="none" xmlns="http://www.w3.org/2000/svg">
<path d="M22.0246 33.1115C22.0606 29.4401 21.1298 26.4545 19.9458 26.4429C18.7617 26.4314 17.7727 29.3983 17.7369 33.0696C17.701 36.7411 18.6318 39.7267 19.8158 39.7383C20.9998 39.7499 21.9888 36.783 22.0246 33.1115Z" fill="#640EF1"/>
<path d="M15.1576 32.2777C17.1728 29.2086 18.0041 26.1937 17.0144 25.5438C16.0245 24.8939 13.5884 26.855 11.5732 29.9241C9.55797 32.9933 8.72669 36.0081 9.71645 36.6581C10.7063 37.308 13.1423 35.3469 15.1576 32.2777Z" fill="#640EF1"/>
<path d="M9.82334 27.8744C13.1781 26.3822 15.5074 24.2955 15.0261 23.2136C14.5449 22.1316 11.4353 22.4643 8.08062 23.9565C4.72593 25.4487 2.39655 27.5354 2.87779 28.6173C3.35902 29.6992 6.46865 29.3666 9.82334 27.8744Z" fill="#640EF1"/>
<path d="M14.6235 20.1795C14.8037 19.0092 12.0079 17.6076 8.37911 17.0491C4.75022 16.4905 1.66243 16.9865 1.4823 18.1568C1.30217 19.3272 4.09791 20.7286 7.72678 21.2872C11.3556 21.8457 14.4434 21.3497 14.6235 20.1795Z" fill="#640EF1"/>
<path d="M15.9264 17.3917C16.7106 16.5045 15.116 13.8142 12.3649 11.3827C9.61375 8.9513 6.74784 7.6995 5.9637 8.58674C5.17956 9.47401 6.77412 12.1643 9.52527 14.5958C12.2764 17.0272 15.1423 18.279 15.9264 17.3917Z" fill="#640EF1"/>
<path d="M18.5211 15.7623C19.6605 15.4399 19.7737 12.3146 18.774 8.7817C17.7743 5.24883 16.0402 2.64624 14.9009 2.96865C13.7615 3.29106 13.6483 6.41637 14.648 9.94927C15.6477 13.4821 17.3818 16.0847 18.5211 15.7623Z" fill="#640EF1"/>
<path d="M25.5667 10.0592C26.6359 6.54673 26.5844 3.41979 25.4516 3.07498C24.3188 2.73017 22.5338 5.29805 21.4646 8.81053C20.3954 12.323 20.447 15.4499 21.5798 15.7947C22.7126 16.1395 24.4976 13.5717 25.5667 10.0592Z" fill="#640EF1"/>
<path d="M30.6011 14.8053C33.3993 12.4281 35.0462 9.76948 34.2795 8.8671C33.5128 7.9647 30.623 9.16028 27.8249 11.5374C25.0267 13.9146 23.3799 16.5732 24.1466 17.4756C24.9132 18.378 27.8031 17.1825 30.6011 14.8053Z" fill="#640EF1"/>
<path d="M32.2658 21.5215C35.905 21.0347 38.7278 19.6886 38.5707 18.5149C38.4138 17.3413 35.3363 16.7846 31.6971 17.2714C28.058 17.7583 25.2351 19.1043 25.3922 20.278C25.5492 21.4516 28.6266 22.0084 32.2658 21.5215Z" fill="#640EF1"/>
<path d="M36.9603 28.9528C37.4628 27.8806 35.175 25.7484 31.8504 24.1903C28.5258 22.6322 25.4234 22.2384 24.9209 23.3105C24.4184 24.3828 26.7062 26.515 30.0308 28.0731C33.3554 29.6311 36.4579 30.025 36.9603 28.9528Z" fill="#640EF1"/>
<path d="M29.9671 36.864C30.9695 36.2338 30.1978 33.203 28.2435 30.0948C26.2892 26.9866 23.8922 24.9778 22.8898 25.6081C21.8874 26.2383 22.6591 29.269 24.6134 32.3773C26.5678 35.4855 28.9647 37.4943 29.9671 36.864Z" fill="#640EF1"/>
<path d="M70.5 15.376L66.496 31H61.148L58.32 20.528L55.464 31H50.116L46.112 15.376H50.9L52.972 26.632L55.884 15.376H60.98L63.976 26.66L66.048 15.376H70.5ZM87.074 22.768C87.074 23.16 87.0274 23.5893 86.934 24.056H76.098C76.154 25.232 76.4527 26.0813 76.994 26.604C77.5354 27.108 78.226 27.36 79.066 27.36C79.7754 27.36 80.3634 27.1827 80.83 26.828C81.2967 26.4733 81.6047 26.016 81.754 25.456H86.822C86.6167 26.5573 86.1687 27.5467 85.478 28.424C84.7874 29.2827 83.91 29.964 82.846 30.468C81.782 30.9533 80.5967 31.196 79.29 31.196C77.7594 31.196 76.3967 30.8787 75.202 30.244C74.026 29.5907 73.102 28.6573 72.43 27.444C71.758 26.2307 71.422 24.812 71.422 23.188C71.422 21.5453 71.7487 20.1267 72.402 18.932C73.074 17.7187 74.0074 16.7947 75.202 16.16C76.3967 15.5067 77.7594 15.18 79.29 15.18C80.8394 15.18 82.202 15.4973 83.378 16.132C84.554 16.7667 85.4594 17.6627 86.094 18.82C86.7474 19.9587 87.074 21.2747 87.074 22.768ZM82.23 22.04C82.2487 21.0133 81.9687 20.248 81.39 19.744C80.83 19.2213 80.13 18.96 79.29 18.96C78.4127 18.96 77.6847 19.2213 77.106 19.744C76.5274 20.2667 76.2007 21.032 76.126 22.04H82.23ZM95.254 15.18C97.2326 15.18 98.81 15.6747 99.986 16.664C101.181 17.6533 101.927 18.96 102.226 20.584H97.746C97.6153 19.9493 97.3166 19.4547 96.85 19.1C96.402 18.7267 95.8326 18.54 95.142 18.54C94.6006 18.54 94.19 18.6613 93.91 18.904C93.63 19.128 93.49 19.4547 93.49 19.884C93.49 20.3693 93.742 20.7333 94.246 20.976C94.7686 21.2187 95.5806 21.4613 96.682 21.704C97.8766 21.984 98.8566 22.2733 99.622 22.572C100.387 22.852 101.05 23.3187 101.61 23.972C102.17 24.6253 102.45 25.5027 102.45 26.604C102.45 27.5 102.207 28.2933 101.722 28.984C101.237 29.6747 100.537 30.216 99.622 30.608C98.7073 31 97.6246 31.196 96.374 31.196C94.2646 31.196 92.5753 30.7293 91.306 29.796C90.0366 28.8627 89.262 27.528 88.982 25.792H93.602C93.6766 26.464 93.9566 26.9773 94.442 27.332C94.946 27.6867 95.59 27.864 96.374 27.864C96.9153 27.864 97.326 27.7427 97.606 27.5C97.886 27.2387 98.026 26.9027 98.026 26.492C98.026 25.9507 97.7646 25.568 97.242 25.344C96.738 25.1013 95.9073 24.8493 94.75 24.588C93.5926 24.3453 92.6406 24.084 91.894 23.804C91.1473 23.524 90.5033 23.076 89.962 22.46C89.4206 21.8253 89.15 20.9667 89.15 19.884C89.15 18.484 89.682 17.3547 90.746 16.496C91.81 15.6187 93.3126 15.18 95.254 15.18ZM119.941 22.768C119.941 23.16 119.895 23.5893 119.801 24.056H108.965C109.021 25.232 109.32 26.0813 109.861 26.604C110.403 27.108 111.093 27.36 111.933 27.36C112.643 27.36 113.231 27.1827 113.697 26.828C114.164 26.4733 114.472 26.016 114.621 25.456H119.689C119.484 26.5573 119.036 27.5467 118.345 28.424C117.655 29.2827 116.777 29.964 115.713 30.468C114.649 30.9533 113.464 31.196 112.157 31.196C110.627 31.196 109.264 30.8787 108.069 30.244C106.893 29.5907 105.969 28.6573 105.297 27.444C104.625 26.2307 104.289 24.812 104.289 23.188C104.289 21.5453 104.616 20.1267 105.269 18.932C105.941 17.7187 106.875 16.7947 108.069 16.16C109.264 15.5067 110.627 15.18 112.157 15.18C113.707 15.18 115.069 15.4973 116.245 16.132C117.421 16.7667 118.327 17.6627 118.961 18.82C119.615 19.9587 119.941 21.2747 119.941 22.768ZM115.097 22.04C115.116 21.0133 114.836 20.248 114.257 19.744C113.697 19.2213 112.997 18.96 112.157 18.96C111.28 18.96 110.552 19.2213 109.973 19.744C109.395 20.2667 109.068 21.032 108.993 22.04H115.097ZM127.225 18.316C127.822 17.364 128.588 16.608 129.521 16.048C130.473 15.488 131.5 15.208 132.601 15.208V20.332H131.229C129.96 20.332 128.97 20.6027 128.261 21.144C127.57 21.6853 127.225 22.6 127.225 23.888V31H122.437V15.376H127.225V18.316ZM141.829 26.324L145.217 15.376H150.313L144.769 31H138.833L133.289 15.376H138.385L141.829 26.324ZM167.137 22.768C167.137 23.16 167.09 23.5893 166.997 24.056H156.161C156.217 25.232 156.515 26.0813 157.057 26.604C157.598 27.108 158.289 27.36 159.129 27.36C159.838 27.36 160.426 27.1827 160.893 26.828C161.359 26.4733 161.667 26.016 161.817 25.456H166.885C166.679 26.5573 166.231 27.5467 165.541 28.424C164.85 29.2827 163.973 29.964 162.909 30.468C161.845 30.9533 160.659 31.196 159.353 31.196C157.822 31.196 156.459 30.8787 155.265 30.244C154.089 29.5907 153.165 28.6573 152.493 27.444C151.821 26.2307 151.485 24.812 151.485 23.188C151.485 21.5453 151.811 20.1267 152.465 18.932C153.137 17.7187 154.07 16.7947 155.265 16.16C156.459 15.5067 157.822 15.18 159.353 15.18C160.902 15.18 162.265 15.4973 163.441 16.132C164.617 16.7667 165.522 17.6627 166.157 18.82C166.81 19.9587 167.137 21.2747 167.137 22.768ZM162.293 22.04C162.311 21.0133 162.031 20.248 161.453 19.744C160.893 19.2213 160.193 18.96 159.353 18.96C158.475 18.96 157.747 19.2213 157.169 19.744C156.59 20.2667 156.263 21.032 156.189 22.04H162.293ZM173.748 26.212V31H168.792V26.212H173.748Z" fill="white"/>
</svg>
